<svg width="264" height="347" xmlns="http://www.w3.org/2000/svg" xmlns:xlink="http://www.w3.org/1999/xlink" overflow="hidden"><defs><clipPath id="clip0"><rect x="0" y="0" width="264" height="347"/></clipPath></defs><g clip-path="url(#clip0)"><path d="M241.44 464.746C236.03 457.834 230.019 445.311 227.214 434.792 225.411 427.679 225.01 423.672 225.01 410.748 224.91 386.504 227.915 373.881 245.948 322.588 251.258 307.46 257.068 289.728 258.771 283.116 261.777 271.695 263.38 268.99 265.684 271.294 266.385 271.995 266.185 274.6 264.983 280.01 264.081 284.218 263.58 287.924 263.78 288.225 264.882 289.227 271.695 286.221 275.001 283.416 276.804 281.813 278.808 279.209 279.509 277.505 280.811 274.3 284.117 273.398 285.119 275.903 286.322 278.908 277.405 303.753 263.68 335.611 248.052 372.078 242.542 391.914 241.54 415.256 240.939 428.38 240.839 429.282 238.935 429.282 237.032 429.282 236.932 428.581 236.932 414.755 236.932 404.637 237.533 397.624 238.735 391.713 241.44 379.09 249.154 356.65 258.371 334.71 262.879 324.09 266.485 315.074 266.485 314.874 266.485 314.673 265.984 314.773 265.283 315.174 264.682 315.575 261.677 316.376 258.671 316.977L253.161 318.079 248.753 330.101C235.529 366.568 230.219 389.209 230.119 409.746 230.119 430.484 234.126 444.409 244.445 459.938 248.052 465.448 249.054 467.652 248.252 468.553 246.549 470.657 245.748 470.156 241.44 464.746ZM264.382 309.464C266.385 308.362 268.99 306.057 270.192 304.254 272.797 300.547 276.203 291.832 275.402 291.03 275.101 290.73 273.198 291.23 271.194 292.032 269.19 292.833 266.185 293.535 264.582 293.535 261.777 293.535 261.476 293.935 258.671 302.551L255.565 311.567 258.17 311.567C259.573 311.567 262.378 310.666 264.382 309.464Z" transform="matrix(1.00011 0 0 -1 -165.975 482.571)"/><path d="M353.344 469.154C351.941 467.852 352.742 465.748 357.15 459.236 366.968 444.61 370.976 430.284 370.875 409.746 370.875 389.209 365.566 366.568 352.342 330.101L347.934 318.079 342.424 316.977C339.418 316.376 336.413 315.575 335.812 315.174 335.11 314.773 334.609 314.673 334.609 314.874 334.609 315.074 338.216 324.09 342.724 334.71 359.455 374.983 364.965 395.621 364.464 417.06 364.163 428.48 364.063 429.282 362.16 429.282 360.256 429.282 360.156 428.38 359.455 415.256 358.253 389.409 354.646 377.087 331.704 321.786 321.185 296.34 314.974 278.407 315.975 276.003 316.977 273.398 320.283 274.3 321.586 277.505 322.287 279.209 324.291 281.813 326.094 283.416 329.4 286.322 336.212 289.227 337.314 288.225 337.615 287.924 337.014 284.218 336.012 280.11 334.71 274.5 334.509 272.196 335.311 271.394 337.715 268.99 339.418 271.494 341.923 281.813 343.426 287.524 347.533 300.748 351.24 311.167 369.373 363.061 372.579 373.981 375.284 392.715 378.189 412.852 375.985 432.989 369.172 448.317 366.067 455.43 361.258 463.244 357.752 467.151 355.147 469.956 354.446 470.357 353.344 469.154ZM342.424 302.551C339.619 293.935 339.318 293.535 336.513 293.535 334.91 293.535 331.905 292.833 329.901 292.032 327.897 291.23 326.094 290.73 325.793 290.93 324.892 291.932 328.899 301.75 331.404 304.755 334.81 308.762 339.418 311.567 342.824 311.567L345.529 311.567 342.424 302.551Z" transform="matrix(1.00011 0 0 -1 -165.975 482.571)"/><path d="M173.716 342.123C172.715 339.719 174.117 338.817 182.833 336.613 203.17 331.404 223.307 317.378 235.329 300.147 240.338 292.934 247.451 279.209 247.451 276.904 247.451 275.502 250.256 274.3 251.558 275.101 253.261 276.103 252.46 279.609 249.154 286.822 244.145 297.642 239.035 304.955 230.219 314.172 218.197 326.695 205.675 334.71 190.347 339.819 179.327 343.526 174.518 344.227 173.716 342.123Z" transform="matrix(1.00011 0 0 -1 -165.975 482.571)"/><path d="M415.857 341.522C400.129 337.314 387.005 329.701 373.981 317.278 364.664 308.362 357.05 297.842 352.041 287.023 348.635 279.609 347.834 276.103 349.537 275.101 350.839 274.3 353.644 275.502 353.644 276.904 353.644 277.505 355.247 281.413 357.15 285.42 369.473 311.067 392.014 329.901 418.262 336.613 426.878 338.817 428.38 339.719 427.479 342.023 426.677 344.027 424.974 343.926 415.857 341.522Z" transform="matrix(1.00011 0 0 -1 -165.975 482.571)"/><path d="M179.026 331.905C176.521 329.5 180.529 314.773 186.339 305.156 191.449 296.74 201.767 287.323 210.884 283.015 215.092 281.012 219.199 279.609 220.001 279.91 223.207 281.112 220.702 284.017 212.888 287.824 196.758 295.939 187.542 308.963 182.933 329.901 182.332 332.405 180.529 333.407 179.026 331.905Z" transform="matrix(1.00011 0 0 -1 -165.975 482.571)"/><path d="M418.162 329.901C413.553 308.863 404.336 295.939 388.207 287.824 380.393 283.917 377.888 281.112 381.194 279.91 382.096 279.509 386.003 280.811 390.311 283.015 399.628 287.624 409.846 296.941 415.056 305.657 421.868 317.178 424.874 331.604 420.566 332.405 419.364 332.606 418.663 331.905 418.162 329.901Z" transform="matrix(1.00011 0 0 -1 -165.975 482.571)"/><path d="M251.558 261.076C249.555 258.671 252.46 250.356 257.168 245.247L259.673 242.642 257.469 241.44C256.267 240.738 252.56 240.438 249.154 240.638 244.044 240.839 242.942 240.638 242.642 239.236 242.141 236.932 245.948 235.128 251.859 234.928 256.567 234.728 256.968 234.527 257.669 231.822 258.972 226.913 263.881 223.006 268.79 222.906 271.094 222.906 273.999 223.307 275.301 223.707 277.405 224.509 277.505 224.309 277.505 219.6 277.505 216.795 276.804 208.78 276.003 201.667 274.4 187.942 274.901 181.33 278.006 175.319 279.509 172.414 282.715 171.312 283.917 173.215 284.218 173.716 283.516 176.221 282.414 178.926 280.11 184.035 280.11 183.134 282.114 213.188 283.216 228.516 280.21 234.427 266.986 243.944 260.575 248.453 256.467 254.063 256.467 258.27 256.467 260.074 254.664 262.478 253.361 262.478 252.961 262.478 252.159 261.877 251.558 261.076ZM271.194 233.826C274.801 230.42 274.901 230.219 272.997 228.817 270.192 226.813 267.688 227.114 264.983 229.919 262.478 232.323 261.877 234.828 263.079 237.833 263.881 239.837 265.884 238.835 271.194 233.826Z" transform="matrix(1.00011 0 0 -1 -165.975 482.571)"/><path d="M345.73 260.274C341.823 250.055 341.121 249.054 334.008 243.844 320.484 233.826 317.879 228.616 318.981 213.188 320.985 183.134 320.985 184.035 318.68 178.826 317.178 175.319 316.877 173.716 317.679 172.715 320.183 169.609 323.99 174.618 325.593 183.534 326.294 187.241 326.194 192.25 325.092 201.667 324.291 208.78 323.589 216.795 323.589 219.6 323.589 224.008 323.79 224.509 325.393 223.908 329.5 222.305 333.507 222.305 336.813 223.808 340.52 225.611 343.626 229.919 343.626 233.325 343.626 235.228 344.027 235.429 347.433 234.928 352.542 234.227 358.152 236.33 358.152 238.935 358.152 240.738 357.551 240.939 351.941 240.638 348.535 240.438 344.828 240.738 343.626 241.44L341.422 242.642 343.926 245.247C348.635 250.356 351.54 258.671 349.537 261.076 347.934 263.079 346.732 262.779 345.73 260.274ZM338.617 235.329C338.617 232.023 334.81 227.414 332.105 227.414 329.3 227.414 326.595 229.318 327.296 231.021 328.098 233.125 336.613 239.536 337.715 238.835 338.216 238.534 338.617 236.932 338.617 235.329Z" transform="matrix(1.00011 0 0 -1 -165.975 482.571)"/><path d="M280.21 163.999C279.509 161.995 280.411 161.093 286.021 158.288 291.932 155.283 296.44 149.372 297.241 143.361L297.842 139.053 294.837 140.556C293.234 141.458 291.331 142.86 290.629 143.662 287.223 147.669 284.518 143.762 287.724 139.654 293.434 132.441 307.66 132.441 313.371 139.654 316.877 144.163 313.771 147.469 309.864 143.361 308.863 142.359 306.959 140.957 305.657 140.255 303.252 139.053 303.252 139.053 303.853 143.361 304.655 149.572 309.063 155.283 315.274 158.288 320.784 160.993 321.886 162.195 320.584 164.299 318.981 166.904 311.567 163.598 305.657 157.687L300.247 152.277 296.24 156.986C290.529 163.398 281.513 167.305 280.21 163.999Z" transform="matrix(1.00011 0 0 -1 -165.975 482.571)"/></g></svg>