<?xml version="1.0" standalone="no"?>
<!DOCTYPE svg PUBLIC "-//W3C//DTD SVG 20010904//EN"
 "http://www.w3.org/TR/2001/REC-SVG-20010904/DTD/svg10.dtd">
<svg version="1.0" xmlns="http://www.w3.org/2000/svg"
 width="600.000000pt" height="600.000000pt" viewBox="0 0 600.000000 600.000000"
 preserveAspectRatio="xMidYMid meet">

<g transform="translate(0.000000,600.000000) scale(0.100000,-0.100000)"
fill="#000000" stroke="none">
<path d="M1516 4523 c-20 -194 -76 -286 -248 -406 -36 -26 -80 -63 -96 -83
-109 -132 -38 -351 178 -558 155 -147 342 -257 558 -327 88 -28 108 -38 82
-38 -55 -1 -113 16 -209 59 -99 45 -139 50 -166 20 -27 -30 -16 -105 26 -177
44 -75 201 -233 260 -261 55 -27 126 -29 192 -5 58 21 62 17 70 -72 9 -90 37
-163 112 -286 80 -131 149 -276 165 -349 9 -38 11 -99 7 -205 -6 -132 -4 -155
12 -190 40 -90 167 -176 318 -217 111 -30 335 -30 446 0 151 41 277 127 318
217 15 32 19 66 19 175 1 216 21 279 187 572 67 119 92 196 100 306 3 45 9 84
12 86 4 3 31 -2 61 -10 72 -20 137 -12 218 26 86 40 142 87 195 163 54 76 77
134 77 191 0 86 -57 98 -179 36 -81 -40 -128 -55 -216 -64 -74 -9 -43 7 73 38
242 63 473 196 648 370 118 118 164 248 134 377 -26 110 -65 163 -179 243
-135 95 -178 169 -188 330 l-6 90 -61 -65 c-80 -84 -109 -144 -109 -229 -1
-86 25 -143 119 -267 80 -106 99 -149 83 -191 -24 -63 -95 -113 -232 -161
-245 -86 -496 -93 -718 -20 -92 30 -266 37 -360 14 -39 -9 -94 -28 -122 -41
-64 -29 -115 -30 -168 -3 -121 61 -288 74 -442 34 -52 -13 -137 -29 -188 -36
-264 -32 -667 60 -788 181 -59 59 -52 89 43 200 83 96 110 157 114 256 3 68 0
91 -20 141 -25 60 -108 202 -119 203 -3 0 -9 -30 -13 -67z m2937 -255 c38 -77
79 -122 168 -184 126 -89 159 -142 159 -258 0 -81 -34 -146 -117 -227 -133
-130 -304 -239 -477 -304 -94 -35 -251 -73 -374 -91 l-107 -15 -74 37 c-128
63 -244 204 -267 323 l-7 34 59 -7 c32 -4 97 -18 144 -31 141 -40 208 -49 355
-48 311 1 631 124 696 268 40 88 16 173 -85 302 -72 92 -106 160 -106 212 0
23 2 41 4 41 2 0 15 -24 29 -52z m-2877 -24 c-8 -71 -30 -113 -107 -205 -71
-85 -89 -121 -89 -180 0 -132 145 -234 435 -308 44 -11 118 -25 164 -32 111
-16 386 -7 461 15 150 44 280 54 280 22 0 -8 -18 -50 -40 -94 -85 -169 -254
-284 -416 -283 -75 1 -203 24 -314 58 -378 113 -730 428 -730 653 0 61 27 95
139 174 87 61 153 130 184 194 29 58 41 53 33 -14z m1698 -741 c44 -143 160
-285 285 -352 34 -18 118 -51 184 -73 206 -66 343 -63 505 12 34 16 62 27 62
24 0 -21 -53 -98 -99 -144 -124 -124 -255 -144 -351 -54 -55 51 -191 71 -268
38 -70 -29 -154 -136 -183 -232 -17 -59 -56 -89 -123 -97 -83 -11 -90 -20 -94
-112 -7 -149 28 -260 117 -372 54 -67 116 -170 107 -178 -1 -2 -32 10 -67 26
-115 54 -178 66 -349 66 -197 0 -229 -8 -423 -103 -21 -10 48 102 111 180 95
117 132 223 132 374 0 84 -8 92 -111 109 -53 8 -85 38 -104 94 -22 66 -83 160
-129 198 -96 79 -229 70 -356 -26 -82 -62 -116 -70 -174 -41 -74 35 -287 274
-220 245 128 -54 192 -69 289 -69 82 0 114 5 176 27 42 14 105 33 141 41 151
35 282 111 359 209 44 55 119 199 119 228 0 10 4 20 10 24 10 6 96 -34 142
-66 35 -25 56 -24 102 7 46 32 143 73 172 74 16 0 24 -11 38 -57z m426 -627
c0 -1 -23 -17 -50 -34 -39 -24 -56 -44 -75 -84 -14 -29 -25 -59 -25 -66 0 -15
-79 -102 -93 -102 -5 0 -3 8 6 18 9 10 26 44 36 75 20 58 63 128 99 160 24 22
102 47 102 33z m-1303 -35 c39 -25 88 -96 119 -173 13 -33 29 -66 35 -74 6 -8
7 -14 2 -14 -20 0 -84 79 -94 116 -17 60 -45 100 -96 133 -40 27 -43 31 -22
31 13 0 38 -9 56 -19z m1353 -123 c0 -82 -19 -151 -65 -235 -100 -184 -174
-332 -186 -370 -14 -49 -21 -53 -36 -20 -6 12 -38 59 -73 104 -65 86 -100 171
-100 242 l0 36 78 1 c49 1 91 7 116 18 55 24 130 99 150 148 34 83 47 104 74
121 15 9 30 17 35 17 4 0 7 -28 7 -62z m-1434 25 c23 -15 37 -39 54 -95 14
-48 91 -133 144 -161 32 -17 58 -22 124 -22 l84 0 -7 -48 c-10 -77 -41 -149
-89 -205 -25 -29 -54 -66 -66 -82 -26 -37 -36 -38 -45 -2 -12 48 -80 183 -154
307 -76 127 -96 179 -107 276 -7 61 -7 61 17 54 13 -4 33 -14 45 -22z m835
-764 c32 -16 25 -94 -13 -168 -38 -74 -32 -94 28 -99 49 -3 101 24 132 69 20
29 23 43 19 91 l-5 58 42 -30 c57 -38 78 -72 78 -125 0 -51 -39 -115 -99 -163
l-38 -30 -65 15 c-105 24 -319 28 -429 9 l-94 -17 -25 23 c-80 72 -117 138
-106 193 6 34 61 105 80 105 5 0 8 -20 6 -45 -5 -59 24 -107 83 -135 50 -24
93 -23 109 2 8 13 4 29 -14 69 -26 54 -32 151 -12 171 26 26 278 32 323 7z
m-387 -176 c5 -13 0 -11 -18 6 -29 27 -32 47 -13 88 12 27 12 26 18 -25 4 -28
10 -60 13 -69z m492 61 c4 -21 0 -37 -14 -54 -25 -30 -36 -23 -22 14 5 15 10
41 10 59 0 38 17 26 26 -19z m-94 -320 c78 -17 -68 -49 -190 -41 -89 5 -180
30 -152 41 40 15 272 15 342 0z"/>
</g>
</svg>
