<svg width="602" height="602" xmlns="http://www.w3.org/2000/svg" xmlns:xlink="http://www.w3.org/1999/xlink" overflow="hidden"><defs><clipPath id="clip0"><rect x="0" y="0" width="602" height="602"/></clipPath></defs><g clip-path="url(#clip0)"><path d="M88.1836 595.768C83.1277 593.299 80.541 587.538 77.2488 572.488 71.4875 546.386 70.1941 534.628 70.0766 511.465 70.0766 493.005 70.4293 488.184 72.5457 479.601 75.3676 468.314 79.3652 458.672 83.9508 451.853L87.0078 447.385 49.9707 446.797 12.9336 446.209 9.28867 442.447C4.70312 437.861 3.7625 431.394 5.76133 417.167 8.81836 396.003 15.6379 378.249 27.2781 361.318 47.1488 332.511 77.7191 313.581 114.168 307.584L118.401 306.879 119.107 292.417C120.635 262.199 126.279 232.217 139.8 181.893 151.558 138.389 153.675 127.102 155.203 98.1777 156.261 76.5434 158.26 67.8426 164.727 54.6738 173.663 36.5668 187.067 23.1629 205.174 14.227 223.634 5.05586 221.047 5.29102 301 5.29102 380.836 5.29102 378.249 5.05586 396.944 14.227 419.754 25.3969 437.626 47.2664 443.857 71.7227 444.916 75.9555 446.327 87.8309 446.797 98.1777 448.443 127.807 450.324 138.389 462.082 181.658 470.665 213.287 474.193 228.337 477.25 245.856 480.424 263.493 483.246 289.007 483.246 299.001 483.246 303.352 483.481 306.879 483.716 306.879 487.009 306.879 505.468 311.229 511.818 313.581 558.026 330.159 589.302 368.607 596.239 417.167 598.237 431.394 597.297 437.861 592.711 442.447L589.066 446.209 552.029 446.797 514.992 447.385 518.049 451.853C522.635 458.672 526.632 468.314 529.454 479.601 534.98 502.059 531.688 548.384 522.047 584.481 520.166 591.183 515.463 595.886 509.701 596.827 501.588 598.002 498.061 594.475 488.184 575.545 469.137 539.331 458.555 528.396 438.566 524.163 427.396 521.929 174.604 521.929 163.434 524.163 143.328 528.396 132.981 539.096 113.816 575.545 107.349 587.773 104.174 592.594 101.235 594.593 96.7668 597.65 92.534 598.002 88.1836 595.768ZM110.994 527.573C126.749 506.527 143.328 497.826 172.84 495.004 189.301 493.475 412.699 493.475 429.16 495.004 444.916 496.532 453.381 498.649 464.434 504.057 474.663 509.113 486.538 520.283 495.592 533.687L501.471 542.27 502.529 537.214C502.999 534.393 503.587 523.105 503.705 512.053 503.822 489.595 502.411 482.188 495.945 470.077 490.183 459.26 480.307 452.323 466.197 449.148 462.905 448.443 452.793 447.385 443.505 446.914L426.809 446.091 422.929 442.329C419.754 439.037 419.166 437.743 419.166 432.688 419.166 427.632 419.754 426.338 423.046 423.046L426.809 419.166 497.355 418.813 567.902 418.578 567.197 415.286C563.434 397.649 555.909 381.776 545.68 369.548 527.926 348.384 504.998 336.744 475.721 334.039 465.021 333.099 463.963 332.746 460.554 329.454L456.909 325.691 455.968 306.056C454.204 268.548 449.619 242.799 435.745 191.652 423.164 145.444 418.578 120.165 418.578 95.9437 418.461 66.3141 399.178 41.2699 371.429 34.6855 360.495 32.0988 241.741 32.0988 230.688 34.6855 208.231 39.9766 190.241 58.0836 185.303 80.1883 184.363 84.3035 183.304 94.768 182.952 103.469 181.776 130.041 178.366 147.325 164.021 199.883 152.499 242.329 147.678 270.43 146.032 306.056L145.091 325.691 141.446 329.454C138.037 332.746 136.979 333.099 126.279 334.039 106.643 335.921 91.4758 340.977 77.3664 350.5 54.909 365.786 40.9172 387.067 34.8031 415.286L34.0977 418.578 104.645 418.813 175.191 419.166 178.954 423.046C182.246 426.338 182.834 427.632 182.834 432.688 182.834 437.743 182.246 439.037 179.071 442.329L175.191 446.091 158.26 446.914C134.392 448.09 123.927 451.265 113.228 460.201 108.642 463.963 102.881 475.133 100.294 484.539 98.0602 493.005 97.4723 520.401 99.2359 534.393 100.177 542.505 100.177 542.623 102.175 539.684 103.234 538.038 107.114 532.629 110.994 527.573Z" transform="matrix(1 0 0 -1 0 602)"/><path d="M201.646 351.559C194.945 348.854 191.064 338.86 194.239 332.746 196.238 328.984 202.94 324.516 206.585 324.516 214.227 324.516 221.047 331.218 221.047 338.625 221.047 348.266 210.582 355.321 201.646 351.559Z" transform="matrix(1 0 0 -1 0 602)"/><path d="M389.771 351.559C383.07 348.854 379.189 338.86 382.364 332.746 384.363 328.984 391.065 324.516 394.71 324.516 402.352 324.516 409.172 331.218 409.172 338.625 409.172 348.266 398.707 355.321 389.771 351.559Z" transform="matrix(1 0 0 -1 0 602)"/><path d="M239.271 125.926C235.156 124.045 231.394 119.107 230.806 114.404 230.336 110.759 231.276 107.819 236.097 98.1777 243.387 83.3629 246.326 80.541 254.086 80.541 258.907 80.541 260.318 81.1289 263.493 84.1859 269.489 90.1824 269.254 94.8856 262.434 108.76 259.26 115.227 255.262 121.693 253.616 123.222 250.441 126.279 243.034 127.572 239.271 125.926Z" transform="matrix(1 0 0 -1 0 602)"/><path d="M352.734 126.161C348.619 124.515 345.092 119.812 339.566 108.76 332.746 94.8856 332.511 90.1824 338.507 84.1859 341.682 81.1289 343.093 80.541 347.914 80.541 355.674 80.541 358.613 83.3629 365.903 98.1777 372.723 111.934 372.958 116.755 367.079 122.516 363.669 125.926 356.614 127.807 352.734 126.161Z" transform="matrix(1 0 0 -1 0 602)"/></g></svg>