<svg width="602" height="376" xmlns="http://www.w3.org/2000/svg" xmlns:xlink="http://www.w3.org/1999/xlink" overflow="hidden"><defs><clipPath id="clip0"><rect x="0" y="0" width="602" height="376"/></clipPath></defs><g clip-path="url(#clip0)"><path d="M162.828 370.318C149.43 368.737 132.124 363.34 120.307 357.013 99.8371 345.941 84.1125 329.565 73.6915 308.351 68.0158 296.906 67.4575 295.324 64.5731 285.089 59.4556 266.387 58.2461 256.245 58.2461 231.682 58.2461 209.072 58.9904 201.349 63.3635 173.715 64.1079 169.435 64.1079 167.015 63.4566 166.364 61.8748 164.782 38.4275 177.25 14.9802 191.951 9.58362 195.301 4.93138 197.906 4.46615 197.627 1.11654 195.487 11.2584 179.111 24.3777 165.62 43.0798 146.36 65.5966 129.425 85.136 120.028 95.464 115.003 100.488 113.515 106.815 113.422 117.795 113.236 123.377 119.19 126.727 134.45 127.099 136.497 127.844 150.36 128.309 165.341 129.146 191.393 129.984 198.837 133.519 214.468 135.008 221.354 141.149 237.264 143.382 240.242L145.057 242.382 152.314 235.31C160.595 227.215 172.691 217.353 176.134 215.771 179.204 214.375 181.437 209.723 181.437 204.885 181.437 202.931 182.275 196.045 183.298 189.718 192.882 128.495 201.814 99.1858 219.214 71.0862 222.005 66.6201 224.052 61.6887 225.541 56.106 226.75 51.4538 229.914 43.1728 232.519 37.5901 236.613 28.9369 238.288 26.7039 244.15 21.0281 247.964 17.3063 253.826 12.9332 257.362 10.9793 275.692 1.20958 304.722-0.372179 327.797 7.16445 330.216 7.90881 332.449 8.9323 332.728 9.39753 333.007 9.86275 333.845 10.2349 334.589 10.2349 336.543 10.2349 345.755 17.2133 350.779 22.4238 358.036 30.0535 364.177 42.2424 368.085 56.7573 369.667 62.8053 370.598 64.8522 377.297 76.2968 387.532 94.0683 397.301 123.843 403.815 157.246 404.28 159.572 405.303 164.782 406.048 168.876 407.35 175.576 410.142 192.975 412.096 206.28 412.468 208.979 413.026 211.398 413.212 211.584 413.398 211.77 416.096 213.538 419.167 215.399 426.611 220.144 437.404 228.983 444.568 236.148 451.174 242.94 451.547 242.94 455.268 235.124 464.015 216.515 466.806 200.512 467.922 161.061 468.667 138.544 469.039 134.636 470.807 128.867 474.436 117.516 479.181 113.515 489.137 113.515 513.328 113.515 569.9 155.757 589.16 188.137 592.696 194.185 593.254 197.255 590.649 197.255 589.625 197.255 580.693 192.045 563.386 181.158 561.339 179.856 553.71 175.762 546.452 172.04 536.589 166.922 533.054 165.434 532.216 166.178 531.379 167.015 531.472 169.249 532.682 175.483 539.846 213.352 539.66 254.943 532.216 282.391 517.701 336.45 477.32 368.644 421.493 370.97 400.837 371.807 383.252 369.109 364.736 362.224 345.103 354.873 332.17 346.313 319.609 332.449L315.236 327.518 298.023 327.518 280.902 327.518 273.552 335.334C266.294 342.963 257.641 349.569 247.499 355.245 240.986 358.967 224.052 365.294 215.957 367.155 199.488 370.877 178.832 372.086 162.828 370.318ZM173.063 325.564C197.441 321.098 218.655 307.699 233.449 287.229 243.777 273.087 245.545 258.199 237.73 251.314 232.147 246.383 224.796 246.662 223.773 251.872 221.168 264.713 203.768 281.926 185.717 289.276 174.924 293.743 170.737 294.859 161.061 295.883 133.333 298.86 113.143 287.881 99.8371 262.759 89.4161 242.847 85.043 222.005 83.9264 187.02 83.1821 164.41 82.5308 161.619 77.5994 161.154 76.0176 160.968 74.2498 161.433 73.6915 162.084 70.1558 166.364 67.9227 218.748 70.528 236.799 74.3428 263.596 81.042 282.112 91.8352 296.534 106.257 315.701 123.47 324.354 152.594 326.96 157.153 327.332 167.015 326.68 173.063 325.564ZM457.688 325.192C467.457 323.517 474.622 320.819 483.461 315.608 492.207 310.491 496.766 306.397 503.372 297.557 513.98 283.508 520.493 267.318 524.494 244.708 526.82 231.589 527.192 196.138 525.238 178.739 524.308 170.737 523.191 163.48 522.726 162.642 521.33 159.851 516.678 160.502 514.631 163.759 513.235 166.178 512.863 169.528 512.398 185.904 511.56 212.421 509.234 227.774 503.186 246.104 490.905 283.322 468.667 299.325 434.333 295.789 420.842 294.394 404.28 287.974 394.045 280.065 382.6 271.226 375.343 262.293 373.203 254.292 371.435 247.871 367.341 246.104 361.014 249.174 350.407 254.385 351.616 272.9 363.712 288.904 377.948 307.699 398.325 320.726 420.377 325.099 429.123 326.866 447.732 326.866 457.688 325.192ZM254.012 218.655C262.107 214.654 265.922 209.444 267.876 200.046 268.993 194.278 267.783 187.951 264.526 182.554 260.153 175.483 248.151 169.435 240.707 170.644 222.191 173.622 212.514 191.207 220.609 207.397 223.773 213.631 227.309 216.887 234.194 219.679 239.963 222.005 248.244 221.633 254.012 218.655ZM360.27 219.307C368.737 215.492 374.226 208.048 375.436 198.465 377.576 182.461 361.386 167.574 345.662 171.109 335.52 173.436 327.704 181.344 325.564 191.486 322.493 206.466 334.682 221.168 350.5 221.354 353.756 221.447 357.013 220.702 360.27 219.307ZM307.978 145.15C325.378 143.661 336.729 139.567 345.382 131.379 350.779 126.355 353.57 121.889 356.548 113.515 358.409 108.211 358.595 105.699 358.595 93.0448 358.595 68.1088 353.012 48.1972 342.219 33.7753 333.659 22.5168 317.097 16.2828 295.883 16.4689 264.713 16.7481 247.778 28.9369 239.683 56.8504 234.938 73.3193 233.077 97.7901 235.683 108.862 238.009 118.725 241.451 124.959 247.313 130.449 258.665 140.87 269.365 144.313 295.417 145.894 296.441 145.987 302.117 145.615 307.978 145.15Z" transform="matrix(1 0 0 -1.00003 0 375.956)"/><path d="M239.125 204.978C233.915 203.303 230.751 199.767 230.751 195.487 230.751 192.51 235.217 188.044 239.311 187.02 244.15 185.624 247.871 186.555 251.779 189.998 257.176 194.743 255.873 200.884 248.709 204.606 246.662 205.629 241.73 205.908 239.125 204.978Z" transform="matrix(1 0 0 -1.00003 0 375.956)"/><path d="M343.242 203.489C338.869 200.512 337.287 196.976 338.683 193.44 340.544 188.974 344.173 187.02 350.779 187.02 356.083 187.02 356.827 187.299 359.711 190.184 363.247 193.719 363.619 196.138 361.293 200.139 358.036 205.629 349.011 207.397 343.242 203.489Z" transform="matrix(1 0 0 -1.00003 0 375.956)"/><path d="M265.364 99.3719C264.713 98.7206 264.247 97.3249 264.247 96.2084 264.247 93.417 272.621 85.8804 280.158 81.9725 291.696 75.9246 293.649 72.668 293.277 60.3861 292.998 53.3147 291.509 52.2912 279.693 50.9886 269.644 49.9651 264.992 48.1042 266.48 45.7781 268.527 42.5215 289.742 40.4745 308.909 41.8702 331.891 43.4519 333.752 48.7555 312.165 51.0816 307.141 51.7329 302.489 52.5703 301.837 53.0355 300.256 54.4312 299.604 60.2 300.442 66.8992 301.093 72.4819 301.465 73.2263 305.094 76.4828 307.327 78.3437 311.328 81.042 314.026 82.3447 320.446 85.3221 329.379 93.417 329.379 96.3014 329.379 100.861 326.122 101.233 311.7 98.6275 300.163 96.5805 293.836 96.5805 282.67 98.5345 270.202 100.768 266.946 100.954 265.364 99.3719Z" transform="matrix(1 0 0 -1.00003 0 375.956)"/></g></svg>