<svg width="602" height="412" xmlns="http://www.w3.org/2000/svg" xmlns:xlink="http://www.w3.org/1999/xlink" overflow="hidden"><defs><clipPath id="clip0"><rect x="0" y="0" width="602" height="412"/></clipPath></defs><g clip-path="url(#clip0)"><path d="M273.301 406.486C253.87 404.805 234.858 400.184 216.372 392.621 204.293 387.579 194.315 381.382 181.185 370.669 177.194 367.413 172.257 363.946 170.262 362.896 166.165 360.795 159.443 361.216 152.616 363.841 139.066 368.988 116.169 373.4 94.2164 375.185 61.9707 377.706 17.856 372.034 4.51651 363.631-4.30644 358.064-1.26042 351.867 20.902 329.81 45.1651 305.652 66.3822 292.943 88.3345 289.477 98.6279 287.796 100.624 287.796 115.644 289.267 124.572 290.212 133.71 291.262 136.125 291.577 142.743 292.628 143.583 291.052 144.318 276.557 144.948 264.268 146.104 256.811 150.725 232.653 155.767 206.919 159.443 191.059 167.951 158.078 168.476 156.397 171.312 147.469 174.358 138.226 187.277 99.0481 200.407 74.89 218.998 56.0887 233.493 41.3838 249.038 32.876 269.415 28.3595 277.923 26.4688 283.28 26.0487 297.249 26.0487 312.689 26.0487 315.735 26.2588 324.873 28.7796 341.574 33.1911 352.077 38.2328 363.421 47.3708 378.126 59.1347 384.323 66.3822 394.722 84.028 401.549 95.6869 404.595 102.094 410.162 116.064 418.25 136.756 423.291 152.931 430.119 180.66 436.106 205.344 437.996 213.956 443.773 243.156 446.504 256.601 447.554 264.793 448.185 276.977 448.92 291.157 449.76 292.523 456.272 291.577 458.688 291.262 467.931 290.212 476.859 289.267 491.984 287.691 493.875 287.691 503.643 289.267 517.298 291.577 523.075 293.783 537.779 302.291 554.9 312.269 584.31 339.998 590.087 351.552 593.133 357.749 592.608 360.795 587.671 364.051 577.168 370.879 534.944 376.866 506.269 375.5 479.38 374.345 458.268 370.354 436.631 362.686 427.808 359.535 422.976 361.111 411.212 370.669 393.251 385.374 375.815 394.302 352.918 400.499 330.65 406.591 301.766 408.796 273.301 406.486ZM231.287 275.822C255.235 270.675 267.314 245.047 256.18 222.674 253.029 216.267 244.312 208.39 237.694 205.869 226.561 201.562 212.801 203.033 203.348 209.44 199.567 211.961 193.054 219.103 191.059 222.884 186.752 230.972 185.912 242.421 188.958 251.349 193.37 264.268 201.877 271.936 215.532 275.612 222.569 277.503 222.884 277.503 231.287 275.822ZM376.341 275.612C385.584 273.196 389.785 270.78 395.772 264.163 406.906 251.979 408.376 234.543 399.553 220.469 393.566 210.91 379.807 202.718 369.618 202.718 359.325 202.718 346.931 208.39 340.944 215.637 333.906 224.355 332.436 228.451 332.436 239.48 332.436 248.093 332.856 250.299 335.272 255.445 340.314 266.264 349.137 273.196 361.321 275.822 368.988 277.503 368.988 277.503 376.341 275.612ZM296.724 118.269C304.287 118.269 315.735 118.48 322.248 118.795 333.276 119.215 334.327 119.005 335.692 117.114 336.637 115.854 337.057 113.963 336.637 112.388 335.902 108.816 327.919 101.674 319.832 97.1574 302.606 87.4942 300.4 84.1331 300.4 67.8526 300.4 59.2398 300.085 56.5089 298.72 55.2484 294.308 50.7319 291.997 54.6182 291.997 66.9073 291.997 71.949 291.472 77.936 291.052 80.2468 289.687 85.8136 284.645 90.6452 274.772 95.897 264.898 101.149 255.235 110.077 255.235 114.068 255.235 118.48 260.067 119.845 272.566 118.9 278.343 118.48 289.267 118.164 296.724 118.269Z" transform="matrix(1.00025 0 0 -1 0 411.869)"/><path d="M218.473 257.441C205.449 253.24 199.672 245.152 202.613 235.279 206.604 222.044 228.871 217.948 240.32 228.346 249.563 236.749 246.517 250.509 234.228 255.655 229.397 257.651 221.729 258.491 218.473 257.441Z" transform="matrix(1.00025 0 0 -1 0 411.869)"/><path d="M363.946 257.441C354.703 255.025 350.082 251.349 347.141 244.417 345.04 239.375 346.406 234.228 351.132 229.292 355.649 224.46 360.27 222.569 367.938 222.464 375.71 222.359 382.328 224.88 386.949 229.817 391.361 234.543 391.991 242.631 388.42 247.883 383.903 254.605 371.614 259.437 363.946 257.441Z" transform="matrix(1.00025 0 0 -1 0 411.869)"/></g></svg>